<?xml version="1.0" encoding="UTF-8" standalone="no"?>
<!DOCTYPE svg PUBLIC "-//W3C//DTD SVG 1.1//EN" "http://www.w3.org/Graphics/SVG/1.1/DTD/svg11.dtd">
<svg xmlns="http://www.w3.org/2000/svg" version="1.1" viewBox="0.00 0.00 642.00 249.00">
<path fill="#f2fcfd" d="
  M 110.90 52.39
  Q 110.70 51.88 110.71 51.35
  A 1.34 1.34 0.0 0 1 113.01 50.43
  Q 117.63 55.17 123.28 59.81
  Q 135.60 69.91 147.97 79.94
  C 149.90 81.51 151.73 83.38 153.52 85.11
  A 0.86 0.85 47.5 0 1 153.47 86.40
  C 150.92 88.45 148.55 90.95 146.03 92.90
  Q 129.89 105.37 113.64 119.62
  A 1.44 1.44 0.0 0 1 112.80 119.98
  Q 110.51 120.21 110.60 119.80
  Q 112.72 110.15 111.62 101.29
  A 0.84 0.84 0.0 0 0 110.72 100.56
  Q 97.85 101.44 85.36 104.04
  Q 71.94 106.83 60.90 113.94
  C 48.50 121.93 41.24 131.95 36.32 145.00
  Q 35.08 148.31 33.66 151.52
  A 0.79 0.79 0.0 0 1 32.24 151.59
  C 29.91 147.43 30.22 141.08 30.84 136.57
  C 32.29 125.87 35.04 115.37 40.50 106.13
  Q 50.26 89.61 69.00 80.48
  Q 83.64 73.35 99.50 71.33
  C 103.40 70.83 107.30 70.84 111.12 70.47
  A 0.91 0.90 -0.4 0 0 111.94 69.64
  Q 112.15 66.95 111.70 64.42
  C 111.06 60.85 111.17 57.21 111.15 53.65
  Q 111.15 53.00 110.90 52.39
  Z"
/>
<path fill="#f2fcfd" d="
  M 348.72 104.15
  Q 362.38 75.13 392.89 67.43
  Q 400.41 65.54 410.99 64.44
  C 413.35 64.19 415.95 64.35 418.30 64.88
  Q 422.71 65.87 426.97 66.79
  Q 440.20 69.65 450.65 76.82
  Q 452.21 77.89 453.11 79.45
  Q 453.41 79.95 453.11 80.46
  Q 451.95 82.44 450.43 84.05
  Q 444.19 90.64 438.50 97.68
  C 436.43 100.25 433.37 97.92 431.18 96.91
  Q 419.00 91.29 406.10 92.87
  Q 391.71 94.65 382.03 106.44
  Q 376.19 113.56 374.92 122.13
  C 374.48 125.02 373.56 127.90 373.72 130.83
  Q 373.93 134.86 374.93 139.46
  Q 379.55 160.58 399.83 167.16
  Q 414.66 171.97 427.25 166.42
  Q 431.29 164.64 435.53 162.38
  A 2.93 2.93 0.0 0 1 439.18 163.10
  Q 445.48 170.78 452.00 178.20
  C 453.30 179.68 454.86 181.94 452.60 183.57
  C 444.92 189.08 435.92 193.81 426.77 195.19
  C 423.06 195.76 419.62 196.74 415.74 196.85
  Q 409.70 197.01 403.78 196.60
  Q 389.17 195.58 375.41 187.53
  Q 351.62 173.62 345.12 146.72
  Q 344.19 142.87 343.47 136.58
  Q 342.87 131.24 343.23 126.61
  Q 344.26 113.62 348.72 104.15
  Z"
/>
<path fill="#f2fcfd" d="
  M 519.44 194.68
  C 508.59 191.96 496.93 185.63 489.50 177.97
  Q 481.91 170.14 477.27 161.44
  C 474.95 157.07 474.03 152.51 472.25 147.97
  Q 471.18 145.24 470.85 142.74
  Q 469.90 135.51 469.94 127.03
  C 470.01 112.75 475.87 99.66 485.09 88.35
  C 493.86 77.60 506.75 70.51 520.21 67.00
  C 524.61 65.86 529.24 65.61 533.79 64.83
  C 536.79 64.31 540.79 64.20 543.77 64.73
  Q 549.47 65.74 554.85 67.01
  C 563.28 69.00 572.60 72.67 578.93 78.28
  A 2.30 2.30 0.0 0 1 579.13 81.51
  L 564.42 98.35
  A 2.25 2.23 34.8 0 1 561.65 98.84
  Q 558.32 97.01 554.75 95.64
  C 541.39 90.50 524.67 91.34 513.86 101.05
  Q 505.75 108.35 502.51 118.34
  Q 501.32 122.01 500.91 128.03
  Q 500.67 131.76 501.07 134.48
  C 501.54 137.58 501.68 140.72 502.68 143.78
  C 508.38 161.25 524.62 170.25 542.93 169.32
  C 549.62 168.98 554.90 166.07 560.48 162.81
  C 562.56 161.60 564.76 161.71 566.42 163.53
  Q 573.72 171.57 579.87 179.59
  Q 581.39 181.57 579.47 183.44
  Q 577.79 185.07 575.73 186.16
  C 568.84 189.84 561.96 193.96 554.21 195.02
  C 550.72 195.49 547.52 196.63 544.00 196.82
  Q 530.83 197.54 519.44 194.68
  Z"
/>
<path fill="#f2fcfd" d="
  M 252.29 193.94
  Q 245.52 191.36 237.63 184.81
  C 230.47 178.86 225.60 169.29 223.71 160.13
  Q 222.40 153.78 222.42 143.98
  Q 222.50 105.52 222.46 67.34
  A 0.65 0.64 0.0 0 1 223.11 66.70
  L 250.71 66.91
  A 1.13 1.13 0.0 0 1 251.83 68.07
  Q 251.64 75.69 251.65 82.76
  Q 251.71 115.87 251.73 143.28
  C 251.74 150.17 252.24 157.80 256.56 163.24
  Q 260.90 168.69 267.57 169.98
  C 278.67 172.13 290.53 168.08 293.07 156.26
  Q 293.74 153.10 293.83 149.15
  Q 294.54 115.44 293.80 85.63
  C 293.65 79.74 294.61 73.96 294.78 68.11
  A 1.50 1.50 0.0 0 1 296.29 66.65
  L 321.89 66.84
  A 1.77 1.77 0.0 0 1 323.65 68.60
  Q 323.97 107.24 323.89 147.75
  Q 323.83 177.83 298.19 191.77
  Q 288.48 197.04 274.19 197.74
  C 270.86 197.91 267.38 197.18 264.03 196.93
  C 260.15 196.63 255.96 195.35 252.29 193.94
  Z"
/>
<path fill="#f2fcfd" d="
  M 94.00 161.13
  Q 96.40 161.41 98.55 161.18
  C 108.79 160.05 119.38 159.08 128.69 155.47
  Q 137.89 151.90 144.93 147.44
  Q 157.27 139.63 164.17 126.80
  Q 166.75 121.99 169.64 114.53
  C 170.29 112.85 169.77 110.95 171.02 109.56
  A 1.50 1.50 0.0 0 1 173.60 110.25
  Q 175.32 118.42 174.29 126.31
  Q 173.37 133.30 171.13 141.03
  C 166.73 156.25 156.93 169.43 143.55 177.69
  Q 135.16 182.86 128.10 185.23
  Q 120.69 187.71 109.99 189.80
  Q 101.53 191.45 94.07 191.58
  A 0.82 0.82 0.0 0 0 93.26 192.46
  Q 93.98 201.83 93.40 210.63
  Q 93.35 211.37 92.78 210.90
  L 51.85 177.22
  A 0.97 0.96 37.8 0 1 51.68 175.91
  Q 52.66 174.58 53.87 173.62
  C 59.23 169.38 64.24 164.86 69.40 160.82
  Q 79.88 152.61 89.48 144.73
  Q 90.22 144.13 92.00 141.69
  Q 92.20 141.42 92.49 141.27
  Q 92.79 141.11 93.05 141.11
  A 0.86 0.85 0.3 0 1 93.92 141.98
  C 93.82 146.18 93.87 150.19 93.42 154.28
  Q 93.07 157.53 93.33 160.45
  Q 93.39 161.06 94.00 161.13
  Z"
/>
</svg>
