<?xml version="1.0" encoding="UTF-8" standalone="no"?>
<!DOCTYPE svg PUBLIC "-//W3C//DTD SVG 1.1//EN" "http://www.w3.org/Graphics/SVG/1.1/DTD/svg11.dtd">
<svg xmlns="http://www.w3.org/2000/svg" version="1.1" viewBox="0.00 0.00 353.00 341.00">
<g stroke-width="2.00" fill="none" stroke-linecap="butt">
<path stroke="#7ba1d0" vector-effect="non-scaling-stroke" d="
  M 214.29 159.01
  L 214.31 174.91
  A 0.28 0.28 0.0 0 0 214.77 175.12
  L 250.45 145.69
  A 0.58 0.57 -45.3 0 0 250.45 144.80
  L 214.73 115.33
  A 0.24 0.23 19.6 0 0 214.34 115.51
  L 214.40 131.36
  Q 214.40 132.36 213.40 132.37
  Q 197.16 132.55 182.68 138.52
  Q 171.77 143.02 164.62 149.37
  Q 150.30 162.10 146.51 182.44
  Q 144.68 192.27 146.96 200.27
  Q 147.17 201.01 147.63 201.65
  A 0.46 0.46 0.0 0 0 148.45 201.51
  C 152.36 187.80 161.28 174.35 173.96 167.85
  Q 192.15 158.51 213.61 158.33
  Q 214.28 158.33 214.29 159.01"
/>
<path stroke="#7ba1d0" vector-effect="non-scaling-stroke" d="
  M 199.18 208.54
  L 199.15 192.50
  A 0.25 0.25 0.0 0 0 198.74 192.30
  L 162.88 221.85
  A 0.48 0.47 45.3 0 0 162.88 222.58
  L 198.44 251.91
  A 0.44 0.43 -70.3 0 0 199.15 251.57
  L 199.19 235.70
  A 0.55 0.55 0.0 0 1 199.73 235.15
  C 217.07 234.82 235.15 229.70 248.24 218.66
  Q 260.40 208.41 265.31 191.79
  C 267.62 183.98 268.97 174.84 266.36 167.25
  Q 266.10 166.50 265.63 165.88
  A 0.32 0.31 -55.5 0 0 265.07 165.99
  Q 260.24 183.00 247.34 194.25
  C 241.76 199.12 235.25 202.38 228.39 204.56
  Q 214.98 208.82 199.89 209.23
  Q 199.18 209.25 199.18 208.54"
/>
</g>
<path fill="#0345a3" d="
  M 332.1278 244.6617
  A 63.11 63.11 0.0 0 1 269.1281 307.8818
  L 145.3283 308.0978
  A 63.11 63.11 0.0 0 1 82.1082 245.0981
  L 81.8922 121.2983
  A 63.11 63.11 0.0 0 1 144.8919 58.0782
  L 268.6917 57.8622
  A 63.11 63.11 0.0 0 1 331.9118 120.8619
  L 332.1278 244.6617
  Z
  M 214.29 159.01
  L 214.31 174.91
  A 0.28 0.28 0.0 0 0 214.77 175.12
  L 250.45 145.69
  A 0.58 0.57 -45.3 0 0 250.45 144.80
  L 214.73 115.33
  A 0.24 0.23 19.6 0 0 214.34 115.51
  L 214.40 131.36
  Q 214.40 132.36 213.40 132.37
  Q 197.16 132.55 182.68 138.52
  Q 171.77 143.02 164.62 149.37
  Q 150.30 162.10 146.51 182.44
  Q 144.68 192.27 146.96 200.27
  Q 147.17 201.01 147.63 201.65
  A 0.46 0.46 0.0 0 0 148.45 201.51
  C 152.36 187.80 161.28 174.35 173.96 167.85
  Q 192.15 158.51 213.61 158.33
  Q 214.28 158.33 214.29 159.01
  Z
  M 199.18 208.54
  L 199.15 192.50
  A 0.25 0.25 0.0 0 0 198.74 192.30
  L 162.88 221.85
  A 0.48 0.47 45.3 0 0 162.88 222.58
  L 198.44 251.91
  A 0.44 0.43 -70.3 0 0 199.15 251.57
  L 199.19 235.70
  A 0.55 0.55 0.0 0 1 199.73 235.15
  C 217.07 234.82 235.15 229.70 248.24 218.66
  Q 260.40 208.41 265.31 191.79
  C 267.62 183.98 268.97 174.84 266.36 167.25
  Q 266.10 166.50 265.63 165.88
  A 0.32 0.31 -55.5 0 0 265.07 165.99
  Q 260.24 183.00 247.34 194.25
  C 241.76 199.12 235.25 202.38 228.39 204.56
  Q 214.98 208.82 199.89 209.23
  Q 199.18 209.25 199.18 208.54
  Z"
/>
<path fill="#f3fcfc" d="
  M 213.61 158.33
  Q 192.15 158.51 173.96 167.85
  C 161.28 174.35 152.36 187.80 148.45 201.51
  A 0.46 0.46 0.0 0 1 147.63 201.65
  Q 147.17 201.01 146.96 200.27
  Q 144.68 192.27 146.51 182.44
  Q 150.30 162.10 164.62 149.37
  Q 171.77 143.02 182.68 138.52
  Q 197.16 132.55 213.40 132.37
  Q 214.40 132.36 214.40 131.36
  L 214.34 115.51
  A 0.24 0.23 19.6 0 1 214.73 115.33
  L 250.45 144.80
  A 0.58 0.57 -45.3 0 1 250.45 145.69
  L 214.77 175.12
  A 0.28 0.28 0.0 0 1 214.31 174.91
  L 214.29 159.01
  Q 214.28 158.33 213.61 158.33
  Z"
/>
<path fill="#f3fcfc" d="
  M 199.89 209.23
  Q 214.98 208.82 228.39 204.56
  C 235.25 202.38 241.76 199.12 247.34 194.25
  Q 260.24 183.00 265.07 165.99
  A 0.32 0.31 -55.5 0 1 265.63 165.88
  Q 266.10 166.50 266.36 167.25
  C 268.97 174.84 267.62 183.98 265.31 191.79
  Q 260.40 208.41 248.24 218.66
  C 235.15 229.70 217.07 234.82 199.73 235.15
  A 0.55 0.55 0.0 0 0 199.19 235.70
  L 199.15 251.57
  A 0.44 0.43 -70.3 0 1 198.44 251.91
  L 162.88 222.58
  A 0.48 0.47 45.3 0 1 162.88 221.85
  L 198.74 192.30
  A 0.25 0.25 0.0 0 1 199.15 192.50
  L 199.18 208.54
  Q 199.18 209.25 199.89 209.23
  Z"
/>
</svg>
